<?xml version="1.0" encoding="utf-8"?>
<!-- Generator: Adobe Illustrator 24.1.2, SVG Export Plug-In . SVG Version: 6.00 Build 0)  -->
<svg version="1.1" id="Layer_1" xmlns="http://www.w3.org/2000/svg" xmlns:xlink="http://www.w3.org/1999/xlink" x="0px" y="0px"
	 viewBox="0 0 600 360" style="enable-background:new 0 0 600 360;" xml:space="preserve">
<style type="text/css">
	.st0{fill:#262626;}
	.st1{fill:#0070CD;}
</style>
<g>
	<path class="st0" d="M357.2,163.9c6.8-3.9,16.3-7.8,29.3-10.1c3.5,14.5,14.3,50.4,40.2,71.7c-1.7-1.8-28.4-31.1-33.7-72.5
		c0,0,0,0,0-0.1c13-1.6,28.9-1.4,48.3,1.9c0,0-21.7-9.6-49.1-8.4c-0.5-7.1-0.3-19.6,3.6-35.7c0,0,0,0,0-0.1
		c10.2-0.2,22,0.7,35.2,3.3c-0.8-0.4-14.4-6.4-33.9-8c3.1-9.9,11.5-33.1,27.4-49.7c0.6-0.6,1.2-1.2,1.8-1.9l0.1,0
		c1.2-1.1,2.4-2.1,3.7-3.1c6.2-4.8,13.3-8.5,17.5-10.5c0.1,0,0.1-0.1,0.2-0.1c0,0,0,0,0,0c1.2-0.5,2.1-1,2.8-1.2l-4,1.6
		c-35.9,11.4-288.5,98.5-2.2,206.7c-1.1-0.6-35.8-19.6-74.1-48.7C363.4,186.6,359.3,174.9,357.2,163.9 M379.2,80.2
		c0.2-0.1,0.5-0.3,0.7-0.5l0,0c0.2-0.3,3.5-5.4,22.5-15h0c0,0,0,0,0,0c0,0,0.1,0,0.1,0c-0.1,0.1-0.2,0.1-0.3,0.2l-0.7,0.4
		c-0.5,0.8-3.3,5-6.4,11.9c-3.2,6.9-6.9,16.6-9.2,28.2c-7.3,0.1-15,1-23.1,3C369.6,91.1,378.7,80.7,379.2,80.2 M384.9,111.1
		c-1.6,10.7-2,22.8,0.1,35.7c-9.4,1.1-19.2,3.6-29,8.1c-1.3-14.3,0.6-27.1,3.9-38C366.8,114.3,375.1,112.2,384.9,111.1 M357,95.5
		c-2.3,5.5-4.1,10.9-5.3,16.3c-5.1,1.9-10.3,4.3-15.5,7.3C340.2,112.4,346.7,104.4,357,95.5 M329.8,139.2c0,0,5.5-9.5,20.1-17.6
		c-1.8,13.1-1.8,25.9,0,36.5c-4.3,2.3-7.6,4.6-11.7,7.9C333.7,158.2,330.2,149.1,329.8,139.2 M361.2,191.8c0,0-9-6.6-17.3-17.5
		c0,0,2.7-3.5,8.9-7.7c4,15.6,9.5,25.8,9.8,26.3C362.1,192.5,361.7,192.2,361.2,191.8"/>
	<path class="st1" d="M455.4,273.4C-150.9,125.8,500.9,5,500.9,5C54.6,140.1,451.4,272.1,455.4,273.4"/>
	<g>
		<path class="st0" d="M66.6,64.4h53.1l62,157.2h-49.2L121.7,190h-63L48,221.6H4.5L66.6,64.4z M111.7,161.1L91.4,95.1h-0.6L69,161.1
			H111.7z"/>
	</g>
	<g>
		<path class="st0" d="M500.7,171.3c0.2,6.3,0.6,24.4,26.6,24.4c3.7,0,23.3,0,23.3-17.9c0-7.4-3.1-12.4-13.5-15.2l-38.5-10
			c-10.9-2.8-39-10.2-39-43.1c0-25.5,19.1-49.2,66.2-49.2c61.4,0,64,33.3,64.2,50.1h-44.2c0-4.8,0.2-21.8-20.7-21.8
			c-12.6,0-20.7,7.2-20.7,16.5c0,11.5,9.6,14.3,15.9,16.1l29.4,7.6c20.9,5.4,45.7,12,45.7,45.3c0,35.1-30,50.7-69.5,50.7
			c-16.3,0-42.6-2.6-57-18.7c-11.5-12.6-11.8-28.1-12-34.8C456.9,171.3,500.7,171.3,500.7,171.3z"/>
	</g>
	<g>
		<path class="st0" d="M11.5,340.1c0.1,3.3,0.5,9.3,11.3,9.3c9.8,0,11-6.1,11-8.4c0-5.3-4.3-6.3-10.8-8c-7.2-1.8-10.4-2.5-12.8-4.2
			c-3.9-2.6-4.9-6.1-4.9-9.3c0-9.6,9.1-13.8,18-13.8c3.1,0,9.4,0.5,13.3,4.7c2.6,2.9,2.7,6.1,2.9,8h-6.8c-0.3-5.9-5.3-7.2-9.9-7.2
			c-6.5,0-10.4,2.9-10.4,7.6c0,4.2,2.7,5.6,8.5,7c11.2,2.9,12.5,3.1,15.2,4.9c4.4,2.9,4.7,7.4,4.7,9.4c0,8.4-6.5,14.7-18.6,14.7
			c-3.6,0-10.9-0.6-14.6-5.3c-2.7-3.5-2.7-7.2-2.7-9.5L11.5,340.1L11.5,340.1z"/>
		<path class="st0" d="M81.3,311.8c4.9-5.3,11.3-6.3,15.7-6.3c13.1,0,21.3,8.4,21.3,24.3c0,12.5-5,25.1-21.8,25.1
			c-16,0-21.3-11.4-21.3-24.3C75.2,325.3,76.1,317.4,81.3,311.8z M86.2,345.1c2.7,3.3,6.7,4.3,10.4,4.3c3.9,0,7.7-1,10.4-4.3
			c3.9-4.7,4.3-12.1,4.3-15.3c0-10.7-3.5-18.8-14.3-18.8c-11.9,0-15,9.6-15,19.2C82,335.4,83,341.1,86.2,345.1z"/>
		<path class="st0" d="M154.9,306.7h6.5V348h21.9v5.8h-28.3L154.9,306.7L154.9,306.7z"/>
		<path class="st0" d="M224.5,306.7v29.2c0,5,1.1,7.1,2.1,8.5c2.9,3.9,7.5,4.7,10.8,4.7c12.7,0,12.7-10,12.7-13.4v-28.9h6.3v29
			c0,2.5,0,7.8-3.9,12.5c-4.7,5.8-11.8,6.5-15.2,6.5c-4.5,0-12.3-1.2-16.6-7.5c-1.4-2.1-2.7-4.8-2.7-11.9v-28.7H224.5z"/>
		<path class="st0" d="M306.5,353.8v-41.6h-15.8v-5.5h38v5.5H313v41.6H306.5z"/>
		<path class="st0" d="M361.7,306.7h6.5v47.1h-6.5V306.7z"/>
		<path class="st0" d="M410.8,311.8c4.9-5.3,11.3-6.3,15.7-6.3c13.1,0,21.3,8.4,21.3,24.3c0,12.5-5,25.1-21.8,25.1
			c-16,0-21.3-11.4-21.3-24.3C404.7,325.3,405.6,317.4,410.8,311.8z M415.7,345.1c2.7,3.3,6.7,4.3,10.4,4.3c3.9,0,7.7-1,10.4-4.3
			c3.9-4.7,4.3-12.1,4.3-15.3c0-10.7-3.5-18.8-14.3-18.8c-11.9,0-15,9.6-15,19.2C411.6,335.4,412.5,341.1,415.7,345.1z"/>
		<path class="st0" d="M484.5,306.7h9.1l23.2,38.9v-38.9h6v47.1h-8.4l-23.9-40v40h-5.9L484.5,306.7L484.5,306.7z"/>
		<path class="st0" d="M566.3,340.1c0.1,3.3,0.5,9.3,11.3,9.3c9.8,0,11-6.1,11-8.4c0-5.3-4.3-6.3-10.8-8c-7.2-1.8-10.4-2.5-12.8-4.2
			c-3.9-2.6-4.9-6.1-4.9-9.3c0-9.6,9.1-13.8,18-13.8c3.1,0,9.4,0.5,13.3,4.7c2.6,2.9,2.7,6.1,2.9,8h-6.8c-0.3-5.9-5.3-7.2-9.9-7.2
			c-6.5,0-10.4,2.9-10.4,7.6c0,4.2,2.7,5.6,8.5,7c11.2,2.9,12.5,3.1,15.2,4.9c4.4,2.9,4.7,7.4,4.7,9.4c0,8.4-6.5,14.7-18.6,14.7
			c-3.6,0-10.9-0.6-14.6-5.3c-2.7-3.5-2.7-7.2-2.7-9.5L566.3,340.1L566.3,340.1z"/>
	</g>
</g>
</svg>
