<?xml version="1.0" encoding="utf-8"?>
<!-- Generator: Adobe Illustrator 24.1.2, SVG Export Plug-In . SVG Version: 6.00 Build 0)  -->
<svg version="1.1" id="Layer_1" xmlns="http://www.w3.org/2000/svg" xmlns:xlink="http://www.w3.org/1999/xlink" x="0px" y="0px"
	 viewBox="0 0 600 360" style="enable-background:new 0 0 600 360;" xml:space="preserve">
<style type="text/css">
	.st0{fill:#FFFFFF;}
</style>
<g>
	<path class="st0" d="M357.2,163.8c6.8-3.9,16.3-7.8,29.3-10.1c3.5,14.6,14.4,50.4,40.2,71.8c-1.7-1.8-28.5-31.1-33.7-72.6
		c0,0,0-0.1-0.1-0.1c13-1.6,29-1.4,48.4,1.9c0,0-21.7-9.7-49.1-8.5c-0.5-7.1-0.4-19.6,3.6-35.8c0,0,0-0.1,0.1-0.2
		c10.2-0.2,22,0.8,35.2,3.3c-0.8-0.4-14.4-6.4-34-8c3.1-9.9,11.5-33.2,27.4-49.7c0.6-0.7,1.2-1.2,1.9-1.9l0.1-0.1
		c1.2-1.1,2.4-2.1,3.7-3.1c6.2-4.9,13.3-8.5,17.6-10.5c0.1-0.1,0.2-0.1,0.3-0.2c0.1,0,0.1,0,0.1,0c1.2-0.6,2.2-1,2.8-1.2l-4,1.6
		c-36,11.4-288.8,98.6-2.3,206.9c-1.1-0.7-35.9-19.6-74.2-48.7C363.4,186.6,359.3,174.8,357.2,163.8 M379.2,80.1
		c0.3-0.2,0.5-0.4,0.8-0.5l0,0c0.2-0.3,3.5-5.4,22.4-15h0.1c0.1,0,0.1,0,0.1,0c0.1,0,0.1-0.1,0.1-0.1c-0.1,0.1-0.3,0.2-0.4,0.3
		l-0.7,0.5c-0.5,0.8-3.3,5-6.5,11.9c-3.2,7-6.9,16.6-9.2,28.3c-7.3,0.2-15,1-23.1,3C369.6,91.1,378.7,80.6,379.2,80.1 M385,111
		c-1.6,10.7-2,22.8,0.1,35.8c-9.4,1.1-19.3,3.6-29.1,8.1c-1.3-14.3,0.7-27.1,3.9-38C366.8,114.3,375,112.1,385,111 M357,95.4
		c-2.3,5.5-4,10.9-5.3,16.3c-5.1,1.9-10.3,4.2-15.5,7.3C340.2,112.3,346.7,104.3,357,95.4 M329.8,139.1c0,0,5.5-9.5,20.1-17.6
		c-1.8,13.1-1.9,25.9,0.1,36.5c-4.2,2.3-7.6,4.6-11.7,7.9C333.7,158.2,330.1,149.1,329.8,139.1 M361.1,191.8c0,0-8.9-6.7-17.3-17.6
		c0,0,2.6-3.5,8.8-7.7c3.9,15.7,9.6,25.8,9.8,26.3C362.1,192.5,361.7,192.2,361.1,191.8"/>
	<path class="st0" d="M455.4,273.5C-151.5,125.8,501.1,4.8,501.1,4.8C54.2,140,451.5,272.1,455.4,273.5"/>
	<g>
		<path class="st0" d="M66.2,64.3h53.2l62.2,157.3h-49.2L121.5,190H58.3l-10.7,31.6H4.1L66.2,64.3z M111.3,161L91,95h-0.7l-21.8,66
			H111.3z"/>
	</g>
	<g>
		<path class="st0" d="M500.8,171.4c0.2,6.4,0.7,24.4,26.6,24.4c3.8,0,23.3,0,23.3-17.8c0-7.4-3.1-12.4-13.5-15.2l-38.6-10
			c-10.9-2.8-39.1-10.2-39.1-43.1c0-25.5,19.2-49.3,66.3-49.3c61.4,0,64.1,33.3,64.3,50.2h-44.2c0-4.8,0.2-21.8-20.7-21.8
			c-12.6,0-20.7,7.1-20.7,16.5c0,11.6,9.6,14.4,15.9,16.2l29.4,7.6c20.9,5.4,45.7,12,45.7,45.4c0,35.1-30.1,50.8-69.5,50.8
			c-16.3,0-42.7-2.6-57.1-18.7c-11.6-12.6-11.8-28.2-12-34.8C456.9,171.4,500.8,171.4,500.8,171.4z"/>
	</g>
	<g>
		<path class="st0" d="M11.1,340.3c0.2,3.3,0.6,9.3,11.4,9.3c9.8,0,11.1-6.1,11.1-8.5c0-5.3-4.2-6.4-10.8-8
			c-7.1-1.8-10.4-2.5-12.8-4.1c-3.9-2.6-4.9-6.1-4.9-9.3c0-9.6,9.1-13.8,17.9-13.8c3.1,0,9.5,0.6,13.2,4.7c2.6,2.9,2.7,6.1,2.9,8
			h-6.8c-0.4-5.9-5.3-7.1-9.9-7.1c-6.6,0-10.4,2.9-10.4,7.6c0,4.1,2.7,5.6,8.5,7c11.3,2.9,12.5,3.1,15.2,5c4.3,2.9,4.7,7.4,4.7,9.4
			c0,8.4-6.6,14.7-18.6,14.7c-3.6,0-10.9-0.6-14.7-5.4c-2.6-3.5-2.7-7.2-2.7-9.5L11.1,340.3L11.1,340.3z"/>
		<path class="st0" d="M80.9,312c4.9-5.3,11.4-6.4,15.8-6.4c13.1,0,21.3,8.4,21.3,24.3c0,12.5-5.1,25.2-21.8,25.2
			c-16.1,0-21.3-11.5-21.3-24.3C74.9,325.5,75.7,317.6,80.9,312z M85.9,345.3c2.6,3.3,6.8,4.3,10.4,4.3c3.9,0,7.7-1,10.4-4.3
			c3.9-4.7,4.2-12.1,4.2-15.3c0-10.7-3.5-18.8-14.3-18.8c-11.9,0-15,9.6-15,19.3C81.6,335.5,82.6,341.3,85.9,345.3z"/>
		<path class="st0" d="M154.6,306.9h6.5v41.3h22v5.8h-28.4L154.6,306.9L154.6,306.9z"/>
		<path class="st0" d="M224.3,306.9v29.2c0,5,1.1,7.1,2.1,8.5c2.9,3.9,7.5,4.7,10.8,4.7c12.8,0,12.8-10,12.8-13.3v-29h6.4V336
			c0,2.5-0.1,7.8-3.9,12.5c-4.7,5.8-11.8,6.6-15.2,6.6c-4.4,0-12.3-1.2-16.6-7.5c-1.4-2.1-2.7-4.9-2.7-11.9v-28.7L224.3,306.9
			L224.3,306.9z"/>
		<path class="st0" d="M306.5,354v-41.6h-15.8v-5.5h38.1v5.5h-15.8V354H306.5z"/>
		<path class="st0" d="M361.7,306.9h6.6V354h-6.6V306.9z"/>
		<path class="st0" d="M410.8,312c4.9-5.3,11.4-6.4,15.8-6.4c13.1,0,21.3,8.4,21.3,24.3c0,12.5-5,25.2-21.8,25.2
			c-16.1,0-21.3-11.5-21.3-24.3C404.7,325.5,405.7,317.6,410.8,312z M415.8,345.3c2.6,3.3,6.8,4.3,10.4,4.3c3.9,0,7.7-1,10.4-4.3
			c3.9-4.7,4.2-12.1,4.2-15.3c0-10.7-3.5-18.8-14.3-18.8c-11.9,0-15,9.6-15,19.3C411.6,335.5,412.5,341.3,415.8,345.3z"/>
		<path class="st0" d="M484.7,306.9h9.1l23.2,39v-39h6V354h-8.4l-24-40v40h-5.9V306.9L484.7,306.9z"/>
		<path class="st0" d="M566.6,340.3c0.2,3.3,0.6,9.3,11.4,9.3c9.8,0,11.1-6.1,11.1-8.5c0-5.3-4.2-6.4-10.8-8
			c-7.1-1.8-10.4-2.5-12.8-4.1c-3.9-2.6-4.9-6.1-4.9-9.3c0-9.6,9.1-13.8,17.9-13.8c3.1,0,9.5,0.6,13.2,4.7c2.6,2.9,2.7,6.1,2.9,8
			h-6.8c-0.4-5.9-5.3-7.1-9.9-7.1c-6.6,0-10.4,2.9-10.4,7.6c0,4.1,2.7,5.6,8.5,7c11.3,2.9,12.5,3.1,15.2,5c4.3,2.9,4.7,7.4,4.7,9.4
			c0,8.4-6.6,14.7-18.6,14.7c-3.6,0-10.9-0.6-14.7-5.4c-2.6-3.5-2.7-7.2-2.7-9.5L566.6,340.3L566.6,340.3z"/>
	</g>
</g>
</svg>
